<mxfile host="65bd71144e">
    <diagram id="m2zSZiCGxjsd16g9xPlB" name="PÃ¡gina-1">
        <mxGraphModel dx="935" dy="532" grid="1" gridSize="10" guides="1" tooltips="1" connect="1" arrows="1" fold="1" page="1" pageScale="1" pageWidth="827" pageHeight="1169" math="0" shadow="0">
            <root>
                <mxCell id="0"/>
                <mxCell id="1" parent="0"/>
                <mxCell id="6" value="" style="edgeStyle=none;html=1;" edge="1" parent="1" source="2" target="3">
                    <mxGeometry relative="1" as="geometry"/>
                </mxCell>
                <mxCell id="2" value="INICIO" style="rounded=1;whiteSpace=wrap;html=1;fillColor=#FFFF66;" vertex="1" parent="1">
                    <mxGeometry x="300" y="40" width="120" height="60" as="geometry"/>
                </mxCell>
                <mxCell id="5" value="" style="edgeStyle=none;html=1;" edge="1" parent="1" source="3" target="4">
                    <mxGeometry relative="1" as="geometry"/>
                </mxCell>
                <mxCell id="3" value="X,Y" style="shape=parallelogram;perimeter=parallelogramPerimeter;whiteSpace=wrap;html=1;fixedSize=1;fillColor=#B3FF66;" vertex="1" parent="1">
                    <mxGeometry x="300" y="140" width="120" height="60" as="geometry"/>
                </mxCell>
                <mxCell id="8" value="" style="edgeStyle=none;html=1;" edge="1" parent="1" source="4" target="7">
                    <mxGeometry relative="1" as="geometry"/>
                </mxCell>
                <mxCell id="4" value="S= X+Y&lt;br&gt;R= X-Y&lt;br&gt;M= X*Y&lt;br&gt;D= X/Y&lt;br&gt;DE= X//Y&lt;br&gt;MOD= X%Y&lt;br&gt;P= X**Y" style="whiteSpace=wrap;html=1;aspect=fixed;fillColor=#66FFB3;" vertex="1" parent="1">
                    <mxGeometry x="304" y="230" width="110" height="110" as="geometry"/>
                </mxCell>
                <mxCell id="10" value="" style="edgeStyle=none;html=1;" edge="1" parent="1" source="7" target="9">
                    <mxGeometry relative="1" as="geometry"/>
                </mxCell>
                <mxCell id="7" value="S,R,M,D,DE,MOD,P" style="shape=document;whiteSpace=wrap;html=1;boundedLbl=1;fillColor=#66FF66;" vertex="1" parent="1">
                    <mxGeometry x="300" y="380" width="120" height="80" as="geometry"/>
                </mxCell>
                <mxCell id="9" value="FIN" style="rounded=1;whiteSpace=wrap;html=1;fillColor=#6666FF;" vertex="1" parent="1">
                    <mxGeometry x="304" y="510" width="120" height="60" as="geometry"/>
                </mxCell>
            </root>
        </mxGraphModel>
    </diagram>
</mxfile>